<svg xmlns="http://www.w3.org/2000/svg" viewBox="0 0 64 64" width="64" height="64" role="img" aria-label="GanadoSoft">
  <defs>
    <linearGradient id="ganado-bg" x1="0" y1="0" x2="0" y2="1">
      <stop offset="0" stop-color="#3E8049"/>
      <stop offset="1" stop-color="#25703A"/>
    </linearGradient>
  </defs>
  <!-- Badge -->
  <rect x="2" y="2" width="60" height="60" rx="15" fill="url(#ganado-bg)"/>
  <!-- Cabeza de vaca -->
  <g fill="#FFFFFF">
    <!-- Cuernos -->
    <path d="M20 21c-4-3-8-2-11-6 5 0 9 1 12 5z"/>
    <path d="M44 21c4-3 8-2 11-6-5 0-9 1-12 5z"/>
    <!-- Orejas -->
    <ellipse cx="15" cy="31" rx="6.5" ry="4" transform="rotate(-30 15 31)"/>
    <ellipse cx="49" cy="31" rx="6.5" ry="4" transform="rotate(30 49 31)"/>
    <!-- Cara -->
    <path d="M32 18c9.4 0 15.5 5 15.5 14.2C47.5 41.5 41 49 32 49s-15.5-7.5-15.5-16.8C16.5 23 22.6 18 32 18z"/>
  </g>
  <!-- Hocico -->
  <ellipse cx="32" cy="40.5" rx="9.5" ry="7" fill="#DEF1E1"/>
  <!-- Ojos -->
  <circle cx="25" cy="29" r="2.6" fill="#193A22"/>
  <circle cx="39" cy="29" r="2.6" fill="#193A22"/>
  <!-- Fosas nasales -->
  <ellipse cx="28.3" cy="40.5" rx="1.8" ry="2.4" fill="#25703A"/>
  <ellipse cx="35.7" cy="40.5" rx="1.8" ry="2.4" fill="#25703A"/>
</svg>
